<svg width="9" height="15" viewBox="0 0 9 15" fill="none" xmlns="http://www.w3.org/2000/svg">
<path d="M0.677002 2.19983L0.676978 2.19985L0.678835 2.20164L5.07049 6.43322L5.07097 6.43367L6.02463 7.34054L0.678926 12.4786C0.562506 12.5905 0.465897 12.7168 0.404582 12.8583C0.345294 12.995 0.308718 13.1454 0.308718 13.298C0.308718 13.454 0.331701 13.6072 0.405965 13.7515C0.464022 13.8846 0.546846 14.0221 0.657022 14.128L0.656926 14.1281L0.660896 14.1316C0.775094 14.2304 0.905083 14.3221 1.05055 14.3804C1.19714 14.4391 1.36392 14.4612 1.51485 14.4612C1.67203 14.4612 1.82635 14.4263 1.97664 14.3708L1.97665 14.3708L1.97914 14.3698C2.1246 14.3116 2.25566 14.2194 2.36172 14.1175L8.56041 8.15962C8.66964 8.05463 8.75347 7.92743 8.81285 7.79045L8.81289 7.79047L8.81394 7.78783C8.87201 7.64272 8.90872 7.49305 8.90872 7.34015C8.90872 7.18751 8.87214 7.03714 8.81285 6.90038C8.75347 6.76341 8.66964 6.6362 8.56041 6.53121L2.36172 0.57332L2.36174 0.573293L2.35975 0.571477C2.13119 0.36336 1.83251 0.261205 1.5258 0.261205C1.21444 0.261205 0.916019 0.387541 0.700827 0.594373C0.474556 0.811855 0.353059 1.08941 0.352526 1.39079C0.340992 1.69365 0.462579 1.98228 0.677002 2.19983Z" fill="#181725" stroke="#181725" stroke-width="0.2"/>
</svg>
